<svg width="16" height="16" viewBox="0 0 16 16" fill="none" xmlns="http://www.w3.org/2000/svg">
<path d="M5.757 0.0758644C5.81335 0.111855 5.86249 0.159333 5.90163 0.215588C5.94077 0.271842 5.96914 0.335771 5.98511 0.403722C6.00108 0.471672 6.00435 0.542314 5.99472 0.611611C5.98509 0.680908 5.96276 0.747503 5.929 0.807592L3.383 5.33342H12.617L10.07 0.807592C10.0018 0.68623 9.98167 0.540957 10.0139 0.403731C10.0462 0.266506 10.1282 0.148568 10.242 0.0758644C10.3558 0.0031603 10.492 -0.0183551 10.6206 0.0160513C10.7493 0.0504577 10.8598 0.137968 10.928 0.25933L13.783 5.33342H15C15.2652 5.33342 15.5196 5.4458 15.7071 5.64584C15.8946 5.84588 16 6.11718 16 6.40008V7.46674C16 7.74963 15.8946 8.02094 15.7071 8.22098C15.5196 8.42101 15.2652 8.53339 15 8.53339V13.3334C15 14.0406 14.7366 14.7189 14.2678 15.219C13.7989 15.7191 13.163 16 12.5 16H3.5C2.83696 16 2.20107 15.7191 1.73223 15.219C1.26339 14.7189 1 14.0406 1 13.3334V8.53339C0.734784 8.53339 0.48043 8.42101 0.292893 8.22098C0.105357 8.02094 0 7.74963 0 7.46674V6.40008C0 6.11718 0.105357 5.84588 0.292893 5.64584C0.48043 5.4458 0.734784 5.33342 1 5.33342H2.217L5.07 0.25933C5.10374 0.199228 5.14825 0.146805 5.20099 0.105056C5.25373 0.0633072 5.31366 0.0330498 5.37737 0.0160127C5.44107 -0.00102452 5.5073 -0.00450775 5.57227 0.00576176C5.63723 0.0160313 5.70067 0.0398523 5.757 0.0758644ZM2 8.53339V13.3334C2 13.7577 2.15804 14.1647 2.43934 14.4647C2.72064 14.7648 3.10218 14.9333 3.5 14.9333H12.5C12.8978 14.9333 13.2794 14.7648 13.5607 14.4647C13.842 14.1647 14 13.7577 14 13.3334V8.53339H2ZM1 6.40008V7.46674H15V6.40008H1ZM4 9.60005C4.13261 9.60005 4.25979 9.65624 4.35355 9.75626C4.44732 9.85628 4.5 9.99193 4.5 10.1334V13.3334C4.5 13.4748 4.44732 13.6105 4.35355 13.7105C4.25979 13.8105 4.13261 13.8667 4 13.8667C3.86739 13.8667 3.74021 13.8105 3.64645 13.7105C3.55268 13.6105 3.5 13.4748 3.5 13.3334V10.1334C3.5 9.99193 3.55268 9.85628 3.64645 9.75626C3.74021 9.65624 3.86739 9.60005 4 9.60005ZM6 9.60005C6.13261 9.60005 6.25979 9.65624 6.35355 9.75626C6.44732 9.85628 6.5 9.99193 6.5 10.1334V13.3334C6.5 13.4748 6.44732 13.6105 6.35355 13.7105C6.25979 13.8105 6.13261 13.8667 6 13.8667C5.86739 13.8667 5.74021 13.8105 5.64645 13.7105C5.55268 13.6105 5.5 13.4748 5.5 13.3334V10.1334C5.5 9.99193 5.55268 9.85628 5.64645 9.75626C5.74021 9.65624 5.86739 9.60005 6 9.60005ZM8 9.60005C8.13261 9.60005 8.25979 9.65624 8.35355 9.75626C8.44732 9.85628 8.5 9.99193 8.5 10.1334V13.3334C8.5 13.4748 8.44732 13.6105 8.35355 13.7105C8.25979 13.8105 8.13261 13.8667 8 13.8667C7.86739 13.8667 7.74021 13.8105 7.64645 13.7105C7.55268 13.6105 7.5 13.4748 7.5 13.3334V10.1334C7.5 9.99193 7.55268 9.85628 7.64645 9.75626C7.74021 9.65624 7.86739 9.60005 8 9.60005ZM10 9.60005C10.1326 9.60005 10.2598 9.65624 10.3536 9.75626C10.4473 9.85628 10.5 9.99193 10.5 10.1334V13.3334C10.5 13.4748 10.4473 13.6105 10.3536 13.7105C10.2598 13.8105 10.1326 13.8667 10 13.8667C9.86739 13.8667 9.74021 13.8105 9.64645 13.7105C9.55268 13.6105 9.5 13.4748 9.5 13.3334V10.1334C9.5 9.99193 9.55268 9.85628 9.64645 9.75626C9.74021 9.65624 9.86739 9.60005 10 9.60005ZM12 9.60005C12.1326 9.60005 12.2598 9.65624 12.3536 9.75626C12.4473 9.85628 12.5 9.99193 12.5 10.1334V13.3334C12.5 13.4748 12.4473 13.6105 12.3536 13.7105C12.2598 13.8105 12.1326 13.8667 12 13.8667C11.8674 13.8667 11.7402 13.8105 11.6464 13.7105C11.5527 13.6105 11.5 13.4748 11.5 13.3334V10.1334C11.5 9.99193 11.5527 9.85628 11.6464 9.75626C11.7402 9.65624 11.8674 9.60005 12 9.60005Z" fill="black"/>
</svg>
