<svg width="15" height="15" viewBox="0 0 15 15" fill="none" xmlns="http://www.w3.org/2000/svg">
<path d="M11.9005 2.35C11.2466 1.69969 10.8862 0.864527 10.8865 0H7.93048V10.3333C7.90769 10.8925 7.63667 11.4222 7.17452 11.8108C6.71237 12.1994 6.09513 12.4166 5.45281 12.4167C4.09439 12.4167 2.96556 11.45 2.96556 10.25C2.96556 8.81667 4.55357 7.74167 6.18941 8.18333V5.55C2.88903 5.16667 0 7.4 0 10.25C0 13.025 2.64031 15 5.44324 15C8.44707 15 10.8865 12.875 10.8865 10.25V5.00833C12.0851 5.75821 13.5243 6.16054 15 6.15833V3.58333C15 3.58333 13.2015 3.65833 11.9005 2.35Z" fill="#FFFBFB"/>
</svg>
